{"glyphs":{"0":{"ha":972,"x_min":0,"x_max":0,"o":"m 56 486 b 486 993 56 818 231 993 b 917 486 756 993 917 818 b 486 -21 917 154 756 -21 b 56 486 231 -21 56 154 m 347 486 b 486 236 347 329 406 236 b 625 486 567 236 625 329 b 486 736 625 643 567 736 b 347 486 406 736 347 643 "},"1":{"ha":757,"x_min":0,"x_max":0,"o":"m 83 892 l 632 993 l 632 0 l 340 0 l 340 694 l 83 638 "},"2":{"ha":985,"x_min":0,"x_max":0,"o":"m 446 424 b 585 646 532 517 585 569 b 485 738 585 694 556 738 b 368 597 415 738 368 675 l 69 597 b 496 994 69 804 211 994 b 901 668 753 994 901 833 b 754 413 901 561 843 481 l 579 278 l 936 278 l 936 0 l 28 0 "},"3":{"ha":925,"x_min":0,"x_max":0,"o":"m 469 -28 b 56 340 206 -28 56 154 l 356 340 b 483 208 356 242 421 208 b 597 299 546 208 597 228 b 400 410 597 356 553 410 l 400 589 b 569 696 497 589 569 639 b 482 757 569 732 542 757 b 376 661 419 757 376 718 l 97 661 b 483 993 97 847 247 993 b 869 717 733 993 869 875 b 707 511 869 615 806 550 b 897 271 826 468 897 390 b 469 -28 897 99 747 -28 "},"4":{"ha":1067,"x_min":0,"x_max":0,"o":"m 594 972 l 844 972 l 844 417 l 997 417 l 997 160 l 844 160 l 844 0 l 525 0 l 525 160 l 14 160 m 567 368 l 567 585 l 396 368 "},"5":{"ha":964,"x_min":0,"x_max":0,"o":"m 908 306 b 485 -21 908 71 672 -21 b 69 58 306 -21 175 17 l 156 328 b 401 257 254 272 350 257 b 571 347 506 257 571 276 b 401 431 571 418 478 431 b 113 385 336 431 211 422 l 253 972 l 878 972 l 878 708 l 474 708 l 425 586 b 610 618 479 611 540 618 b 908 306 756 618 908 513 "},"6":{"ha":1008,"x_min":0,"x_max":0,"o":"m 853 965 l 549 661 b 631 671 572 668 597 671 b 939 354 768 671 939 561 b 504 -28 939 92 740 -28 b 69 354 268 -28 69 92 b 214 667 69 475 135 572 l 465 965 m 374 354 b 504 229 374 276 431 229 b 635 354 578 229 635 276 b 504 482 635 432 578 482 b 374 354 431 482 374 432 "},"7":{"ha":903,"x_min":0,"x_max":0,"o":"m 42 972 l 903 972 l 431 0 l 99 0 l 457 688 l 42 688 "},"8":{"ha":939,"x_min":0,"x_max":0,"o":"m 69 264 b 254 514 69 394 153 472 b 104 738 169 557 104 629 b 469 1000 104 917 275 1000 b 835 738 664 1000 835 917 b 685 514 835 629 769 557 b 869 264 786 472 869 394 b 469 -28 869 71 671 -28 b 69 264 268 -28 69 71 m 390 710 b 469 625 390 660 421 625 b 549 710 518 625 549 660 b 469 792 549 760 518 792 b 390 710 421 792 390 760 m 376 313 b 469 215 376 249 414 215 b 563 313 525 215 563 249 b 469 403 563 363 525 403 b 376 313 414 403 376 363 "},"9":{"ha":1008,"x_min":0,"x_max":0,"o":"m 156 7 l 460 311 b 378 301 436 304 411 301 b 69 618 240 301 69 411 b 504 1000 69 881 268 1000 b 939 618 740 1000 939 881 b 794 306 939 497 874 400 l 543 7 m 635 618 b 504 743 635 696 578 743 b 374 618 431 743 374 696 b 504 490 374 540 431 490 b 635 618 578 490 635 540 "}," ":{"ha":417,"x_min":0,"x_max":0,"o":""},"!":{"ha":514,"x_min":0,"x_max":0,"o":"m 424 972 l 368 347 l 146 347 l 90 972 m 93 104 b 257 250 93 192 160 250 b 421 104 354 250 421 192 b 257 -42 421 17 354 -42 b 93 104 160 -42 93 17 "},"'":{"ha":444,"x_min":0,"x_max":0,"o":"m 403 972 l 243 514 l 69 514 l 125 972 "},"\"":{"ha":764,"x_min":0,"x_max":0,"o":"m 403 972 l 243 514 l 69 514 l 125 972 m 722 972 l 563 514 l 389 514 l 444 972 "},"#":{"ha":979,"x_min":0,"x_max":0,"o":"m 49 431 l 181 431 l 210 549 l 104 549 l 104 764 l 263 764 l 313 972 l 542 972 l 490 764 l 622 764 l 674 972 l 903 972 l 853 764 l 931 764 l 931 549 l 800 549 l 771 431 l 875 431 l 875 215 l 719 215 l 667 0 l 438 0 l 490 215 l 358 215 l 306 0 l 76 0 l 129 215 l 49 215 m 553 417 l 588 563 l 428 563 l 393 417 "},"$":{"ha":899,"x_min":0,"x_max":0,"o":"m 631 658 b 481 776 589 739 532 776 b 401 714 425 776 401 743 b 622 589 401 646 504 632 b 871 278 772 535 871 440 b 571 -6 871 118 753 22 l 579 -156 l 367 -156 l 375 -7 b 28 219 218 18 81 118 l 233 369 b 458 219 306 264 365 219 b 547 279 522 219 547 238 b 363 390 547 328 478 344 b 89 708 267 428 89 513 b 375 978 89 833 200 947 l 367 1136 l 581 1136 l 572 978 b 857 783 725 954 799 874 l 631 658 "},"%":{"ha":1418,"x_min":0,"x_max":0,"o":"m 21 729 b 310 1007 21 882 150 1007 b 599 729 469 1007 599 882 b 310 451 599 576 469 451 b 21 729 150 451 21 576 m 1261 972 l 442 0 l 157 0 l 976 972 m 239 729 b 310 661 239 692 271 661 b 381 729 349 661 381 692 b 310 797 381 767 349 797 b 239 729 271 797 239 767 m 819 244 b 1108 522 819 397 949 522 b 1397 244 1268 522 1397 397 b 1108 -33 1397 92 1268 -33 b 819 244 949 -33 819 92 m 1038 244 b 1108 176 1038 207 1069 176 b 1179 244 1147 176 1179 207 b 1108 313 1179 282 1147 313 b 1038 244 1069 313 1038 282 "},"&":{"ha":1110,"x_min":0,"x_max":0,"o":"m 722 65 b 410 -21 632 13 526 -21 b 56 264 207 -21 56 85 b 285 532 56 415 175 489 b 183 744 222 603 183 661 b 519 1001 183 861 304 1001 b 828 756 722 1001 828 872 b 618 490 828 622 757 582 l 746 357 b 849 494 785 397 818 444 l 1022 354 b 897 199 990 304 949 250 l 1089 0 l 783 0 m 439 724 b 497 617 439 692 460 660 b 590 725 560 653 590 692 b 517 792 590 753 561 792 b 439 724 461 792 439 751 m 338 290 b 451 201 338 247 368 201 b 571 228 492 201 532 211 l 421 386 b 338 290 374 365 338 340 "},"(":{"ha":500,"x_min":0,"x_max":0,"o":"m 493 1083 b 333 403 396 875 333 639 b 493 -278 333 167 396 -69 l 250 -278 b 76 403 139 -69 76 167 b 250 1083 76 639 139 875 "},")":{"ha":500,"x_min":0,"x_max":0,"o":"m 7 -278 b 167 403 104 -69 167 167 b 7 1083 167 639 104 875 l 250 1083 b 424 403 361 875 424 639 b 250 -278 424 167 361 -69 "},"*":{"ha":822,"x_min":0,"x_max":0,"o":"m 97 393 l 279 568 l 29 604 l 107 842 l 329 725 l 286 972 l 536 972 l 493 725 l 715 842 l 793 604 l 543 568 l 725 393 l 522 246 l 411 472 l 300 246 "},"+":{"ha":986,"x_min":0,"x_max":0,"o":"m 90 514 l 354 514 l 354 785 l 632 785 l 632 514 l 896 514 l 896 257 l 632 257 l 632 -14 l 354 -14 l 354 257 l 90 257 "},",":{"ha":463,"x_min":0,"x_max":0,"o":"m 414 106 l 226 -242 l 21 -207 l 143 153 "},"-":{"ha":319,"x_min":0,"x_max":0,"o":"m 7 444 l 313 444 l 313 215 l 7 215 "},".":{"ha":467,"x_min":0,"x_max":0,"o":"m 69 118 b 233 278 69 206 136 278 b 397 118 331 278 397 206 b 233 -42 397 31 331 -42 b 69 118 136 -42 69 31 "},"/":{"ha":924,"x_min":0,"x_max":0,"o":"m 903 972 l 292 -208 l 21 -208 l 646 972 "},":":{"ha":467,"x_min":0,"x_max":0,"o":"m 69 632 b 233 792 69 719 136 792 b 397 632 331 792 397 719 b 233 472 397 544 331 472 b 69 632 136 472 69 544 m 69 118 b 233 278 69 206 136 278 b 397 118 331 278 397 206 b 233 -42 397 31 331 -42 b 69 118 136 -42 69 31 "},";":{"ha":599,"x_min":0,"x_max":0,"o":"m 160 618 b 324 778 160 706 226 778 b 488 618 421 778 488 706 b 324 458 488 531 421 458 b 160 618 226 458 160 531 m 463 106 l 275 -242 l 69 -207 l 192 153 "},"<":{"ha":889,"x_min":0,"x_max":0,"o":"m 799 250 l 799 -14 l 90 278 l 90 465 l 799 757 l 799 493 l 460 376 "},"=":{"ha":879,"x_min":0,"x_max":0,"o":"m 69 632 l 810 632 l 810 403 l 69 403 m 69 299 l 810 299 l 810 69 l 69 69 "},">":{"ha":889,"x_min":0,"x_max":0,"o":"m 90 493 l 90 757 l 799 465 l 799 278 l 90 -14 l 90 250 l 429 367 "},"?":{"ha":929,"x_min":0,"x_max":0,"o":"m 588 694 b 460 785 588 751 543 785 b 229 661 381 785 286 744 l 56 815 b 474 1007 175 940 308 1007 b 860 694 661 1007 860 901 b 560 392 860 518 706 426 l 556 306 l 333 306 l 306 556 l 356 556 b 588 694 522 556 588 644 m 281 97 b 444 236 281 171 347 236 b 608 97 542 236 608 171 b 444 -42 608 24 542 -42 b 281 97 347 -42 281 24 "},"@":{"ha":1069,"x_min":0,"x_max":0,"o":"m 14 444 b 576 1014 14 763 251 1014 b 1056 542 874 1014 1056 776 b 779 194 1056 293 925 194 b 608 311 699 194 625 244 b 456 208 571 244 515 208 b 278 431 338 208 278 293 b 483 736 278 624 379 736 b 600 674 528 736 569 713 l 604 722 l 800 722 l 776 443 b 774 406 775 433 774 417 b 800 356 774 372 782 356 b 868 542 828 356 868 381 b 576 847 868 713 768 847 b 201 444 343 847 201 685 b 535 118 201 246 301 118 b 778 174 632 118 703 143 l 831 21 b 507 -49 747 -24 638 -49 b 14 444 182 -49 14 168 m 481 444 b 513 368 481 394 494 368 b 579 500 547 368 579 436 b 547 576 579 557 568 576 b 481 444 506 576 481 508 "}}}
